<svg width="14" height="24" viewBox="0 0 14 24" fill="none" xmlns="http://www.w3.org/2000/svg">
<g clip-path="url(#clip0_47_26)">
<path d="M9.42481 11.952C6.6183 8.81269 3.89135 5.80896 1.23313 2.75562C0.66893 2.10724 -0.596893 1.52502 0.379599 0.410204C0.97996 -0.274565 3.61287 -0.0694656 4.34343 0.721161C5.97454 2.48436 7.55139 4.29056 9.14994 6.07692C10.5568 7.65155 11.9311 9.25597 13.3886 10.7942C14.1445 11.5915 14.2458 12.2233 13.461 13.0867C10.4483 16.3782 7.47182 19.6962 4.54958 23.0506C3.45012 24.3143 1.99262 24.0629 0.766579 23.732C-0.510094 23.3847 0.0649519 22.4717 0.69063 21.7737C3.24398 18.9254 5.7937 16.0706 8.33982 13.2157C8.67978 12.8353 9.00166 12.4449 9.42481 11.9553V11.952Z" fill="#171717"/>
</g>
<defs>
<clipPath id="clip0_47_26">
<rect width="14" height="24" fill="white" transform="matrix(-1 0 0 -1 14 24)"/>
</clipPath>
</defs>
</svg>
