<svg width="128" height="128" viewBox="0 0 128 128" fill="none" xmlns="http://www.w3.org/2000/svg">
<path d="M80.3702 87.45C75.4302 95.1267 74.5702 103.3 77.9002 112.08H76.4769C57.5969 112.08 38.7169 112.08 19.8369 112.08C17.0636 112.08 16.1836 111.04 16.8436 108.353C20.8869 91.9633 31.1336 81.65 47.6436 78.2667C59.6336 75.81 70.5202 79.0233 79.9602 86.8967C80.0569 86.9767 80.1502 87.06 80.2302 87.1533C80.2802 87.2133 80.3036 87.3 80.3736 87.4466L80.3702 87.45Z" fill="#171717"/>
<path d="M101.67 80.23C113.71 80.2733 123.497 90.1 123.43 102.073C123.363 114.21 113.55 123.813 101.277 123.753C89.4166 123.697 79.7966 113.81 79.8533 101.74C79.9066 89.8967 89.7566 80.1833 101.67 80.2267V80.23ZM98.7199 103.947C97.0566 102.267 95.5433 100.667 93.9499 99.1467C92.5433 97.8033 90.6266 97.83 89.3699 99.1C88.1233 100.36 88.1133 102.293 89.4599 103.683C91.7466 106.04 94.0699 108.367 96.4299 110.653C97.9099 112.087 99.7299 112.06 101.19 110.6C105.393 106.393 109.58 102.17 113.743 97.9233C115.163 96.4733 115.173 94.54 113.873 93.2467C112.553 91.9333 110.68 91.9733 109.22 93.43C106.067 96.57 102.95 99.7467 99.8133 102.903C99.4966 103.223 99.1633 103.527 98.7233 103.947H98.7199Z" fill="#171717"/>
<path d="M35.1733 55.51C35.1733 44.6733 43.8999 35.9233 54.7133 35.9233C65.5033 35.9233 74.3099 44.7167 74.3166 55.4967C74.3233 66.2767 65.5199 75.0767 54.7266 75.08C43.8999 75.08 35.1733 66.35 35.1699 55.51H35.1733Z" fill="#171717"/>
<path d="M87.6469 16.28C88.0669 16.9067 88.3969 17.2467 88.5569 17.6533C89.5569 20.2 90.5502 22.7533 91.4735 25.33C91.7735 26.1667 92.2035 26.47 93.0935 26.5C95.7935 26.5867 98.4902 26.75 101.184 26.9433C101.647 26.9767 102.09 27.3 102.54 27.49C102.264 27.9133 102.064 28.43 101.694 28.74C99.6502 30.44 97.5935 32.13 95.4702 33.7367C94.6969 34.3233 94.5869 34.9 94.8335 35.7567C95.5702 38.3067 96.2802 40.8633 96.9402 43.4333C97.0602 43.8967 96.8902 44.4367 96.8569 44.94C96.3769 44.82 95.8235 44.8167 95.4269 44.5633C93.1802 43.1433 90.9435 41.7033 88.7602 40.1867C87.9369 39.6133 87.3502 39.6533 86.5469 40.21C84.3969 41.6967 82.1969 43.12 79.9802 44.51C79.5502 44.78 78.9602 44.7967 78.4469 44.9267C78.4302 44.3867 78.2869 43.8133 78.4135 43.31C79.0569 40.78 79.7435 38.26 80.4802 35.7533C80.7369 34.8767 80.6002 34.3033 79.8435 33.7233C77.7002 32.08 75.6069 30.37 73.5302 28.6433C73.1935 28.3633 73.0369 27.8667 72.7969 27.4667C73.2169 27.2867 73.6269 26.9767 74.0602 26.9467C76.8369 26.7533 79.6202 26.59 82.4002 26.49C83.2069 26.46 83.5735 26.1333 83.8335 25.4233C84.7935 22.8167 85.7869 20.2233 86.7969 17.6333C86.9469 17.25 87.2369 16.9233 87.6469 16.28Z" fill="#171717"/>
<path d="M47.7799 22.1167C47.5599 21.8433 47.3166 21.4233 46.9699 21.1367C44.8799 19.4233 42.7499 17.76 40.6733 16.0367C40.3066 15.73 40.1166 15.21 39.8433 14.7867C40.3466 14.5933 40.8399 14.2667 41.3499 14.2333C44.0033 14.0567 46.6599 13.9367 49.3199 13.8433C50.1866 13.8133 50.6333 13.4733 50.9333 12.6333C51.8499 10.0567 52.8433 7.50334 53.8633 4.96667C54.0199 4.57667 54.4733 4.30334 54.7866 3.97667C55.0633 4.30334 55.4466 4.58667 55.5966 4.96334C56.6166 7.54667 57.6199 10.14 58.5599 12.7533C58.8266 13.5 59.2299 13.8033 59.9966 13.8333C62.5699 13.9367 65.1466 14.0467 67.7166 14.23C68.3533 14.2767 68.9666 14.6033 69.5933 14.8C69.1899 15.33 68.8699 15.9533 68.3733 16.37C66.3999 18.0267 64.3866 19.6367 62.3566 21.22C61.7766 21.6733 61.6366 22.1167 61.8366 22.82C62.5899 25.45 63.3099 28.09 63.9866 30.74C64.1066 31.21 63.9566 31.75 63.9299 32.26C63.4466 32.1433 62.8866 32.14 62.4899 31.89C60.2066 30.45 57.9433 28.98 55.7133 27.4567C54.9799 26.9567 54.4299 26.9867 53.7099 27.4733C51.4799 28.9933 49.2166 30.4667 46.9333 31.9067C46.5366 32.1567 45.9733 32.1433 45.4866 32.2533C45.4599 31.7933 45.3166 31.3033 45.4266 30.8767C46.0799 28.3067 46.7899 25.75 47.4799 23.1867C47.5566 22.9067 47.6366 22.63 47.7799 22.1233V22.1167Z" fill="#171717"/>
<path d="M12.2532 44.32C13.0532 41.34 13.7566 38.57 14.5632 35.8267C14.8366 34.8933 14.7099 34.2967 13.9199 33.69C11.7799 32.0467 9.68324 30.3433 7.60657 28.6167C7.27657 28.34 7.1299 27.84 6.8999 27.4433C7.32657 27.27 7.74324 26.9767 8.1799 26.9467C10.9566 26.7567 13.7332 26.59 16.5132 26.4933C17.3232 26.4633 17.6799 26.1233 17.9399 25.42C18.8999 22.8167 19.8866 20.22 20.9066 17.64C21.0532 17.27 21.4399 16.9933 21.7166 16.6733C22.0332 17 22.4932 17.2667 22.6466 17.6567C23.6766 20.2333 24.6699 22.8267 25.6132 25.4367C25.8799 26.1767 26.2666 26.46 27.0532 26.49C29.8332 26.5933 32.6132 26.7533 35.3866 26.9467C35.8132 26.9767 36.2199 27.29 36.6366 27.47C36.3999 27.87 36.2466 28.37 35.9132 28.6467C33.8032 30.3967 31.6732 32.12 29.5032 33.7967C28.8399 34.3067 28.6666 34.79 28.9032 35.5933C29.6699 38.2167 30.3899 40.8567 31.0599 43.5067C31.1732 43.9567 30.9599 44.49 30.8999 44.9867C30.4532 44.86 29.9466 44.8333 29.5699 44.5933C27.3632 43.1933 25.1566 41.7833 23.0132 40.2867C22.1432 39.68 21.5099 39.6033 20.5932 40.2467C18.3532 41.82 16.0332 43.28 13.7199 44.7467C13.4199 44.9367 12.9532 45.0033 12.6099 44.9267C12.4132 44.8833 12.3066 44.43 12.2466 44.32H12.2532Z" fill="#171717"/>
</svg>
