<svg width="20" height="18" viewBox="0 0 24 22" fill="none" xmlns="http://www.w3.org/2000/svg">
<path d="M12 16L13 14V8.858C14.721 8.411 16 6.858 16 5C16 2.794 14.206 1 12 1C9.794 1 8 2.794 8 5C8 6.858 9.279 8.411 11 8.858V14L12 16Z" fill="#A3A3A3"/>
<path d="M16.267 9.563L15.734 11.491C18.325 12.207 20 13.584 20 15C20 16.892 16.715 19 12 19C7.285 19 4 16.892 4 15C4 13.584 5.675 12.207 8.267 11.49L7.734 9.562C4.197 10.54 2 12.623 2 15C2 18.364 6.393 21 12 21C17.607 21 22 18.364 22 15C22 12.623 19.803 10.54 16.267 9.563Z" fill="#A3A3A3"/>
</svg>
