<svg width="109" height="128" viewBox="0 0 109 128" fill="none" xmlns="http://www.w3.org/2000/svg">
<g clip-path="url(#clip0_431_4)">
<path d="M56.0826 128H53.0754C45.6904 125.573 38.6594 122.39 32.1053 118.19C18.4724 109.455 9.31276 97.3325 4.48315 81.92C1.42072 72.15 0.301177 62.0775 0.0601987 51.9125C-0.110494 44.7575 0.120443 37.59 0.228381 30.43C0.326279 24.005 5.50982 18.2975 11.9309 17.485C14.7423 17.13 17.5738 16.925 20.3701 16.4925C30.3331 14.9525 39.1639 10.9375 46.6945 4.2075C48.6223 2.485 50.4974 0.725 53.0729 0H56.0801C58.6154 0.71 60.4755 2.42 62.3707 4.1225C69.2837 10.335 77.3339 14.3425 86.471 16.0475C90.1108 16.7275 93.8183 17.0275 97.4958 17.505C103.46 18.28 108.832 24.0225 108.902 29.96C109.002 38.33 109.053 46.7025 108.905 55.07C108.774 62.6175 107.732 70.0775 105.905 77.41C101.143 96.5175 90.2237 110.962 72.9837 120.615C67.5919 123.635 61.9464 126.065 56.0801 127.997L56.0826 128ZM86.4861 63.94C86.3756 46.28 72.0575 32.05 54.5163 32.1625C36.8169 32.275 22.559 46.56 22.672 64.065C22.7875 81.7375 37.088 95.9525 54.6418 95.8425C72.3461 95.73 86.5965 81.455 86.4886 63.9425L86.4861 63.94Z" fill="#171717"/>
<path d="M53.5548 88.3675C39.3622 87.7225 29.5524 75.62 30.1523 62.8875C30.7974 49.1875 42.9016 38.15 57.4105 39.775C69.9765 41.1825 80.4364 52.5575 78.8475 66.7975C77.4217 79.585 66.2062 88.9275 53.5523 88.37L53.5548 88.3675ZM49.0114 68.8625C48.808 68.76 48.7177 68.7375 48.6599 68.6825C47.5052 67.5375 46.3606 66.385 45.2034 65.245C43.3785 63.4525 41.1193 63.3425 39.553 64.955C38.0393 66.515 38.1698 68.755 39.9019 70.505C41.8096 72.43 43.7349 74.335 45.6552 76.2475C47.9721 78.555 49.8799 78.5525 52.1993 76.24C57.6288 70.8225 63.0559 65.405 68.4829 59.985C68.7766 59.69 69.0803 59.3975 69.3339 59.07C70.5262 57.535 70.3831 55.3875 69.0151 54.075C67.6244 52.74 65.5284 52.6725 64.0123 53.9375C63.5981 54.285 63.2241 54.68 62.84 55.0625C58.2388 59.6525 53.6376 64.2425 49.0089 68.865L49.0114 68.8625Z" fill="#171717"/>
</g>
<defs>
<clipPath id="clip0_431_4">
<rect width="109" height="128" fill="white"/>
</clipPath>
</defs>
</svg>
