<svg width="124" height="129" viewBox="0 0 124 129" fill="none" xmlns="http://www.w3.org/2000/svg">
<path d="M59.6328 74.1337C51.6471 74.1337 44.5631 74.0292 37.479 74.1598C31.5542 74.2643 28.9009 72.1492 30.4208 65.6995C34.6969 47.6038 38.8701 29.4821 42.8114 11.3081C43.9191 6.16397 46.1602 3.73555 51.6214 4.02279C58.4993 4.38835 65.4031 4.02279 72.3068 4.12723C80.0864 4.23168 81.4517 6.16398 78.9272 13.5276C74.2646 27.1581 69.4732 40.7102 64.3469 55.4374C72.6159 55.4374 79.9061 55.2808 87.1962 55.4897C93.9711 55.6725 95.594 58.2837 92.477 64.2894C82.7139 83.0379 72.822 101.708 62.6725 120.248C61.4875 122.415 58.2417 123.433 55.9491 125C55.0217 122.337 53.0124 119.543 53.3216 117.036C55.0732 102.988 57.3659 89.0176 59.607 74.0815L59.6328 74.1337Z" fill="#171717"/>
</svg>
