<svg width="16" height="17" viewBox="0 0 16 17" fill="none" xmlns="http://www.w3.org/2000/svg">
<g clip-path="url(#clip0_43_142)">
<path d="M15.1426 14.6594V3.88043C15.1426 3.0312 14.4307 2.34058 13.5553 2.34058H11.968V0.800724H10.3807V2.34058H5.61884V0.800724H4.03154V2.34058H2.44424C1.56884 2.34058 0.856934 3.0312 0.856934 3.88043V14.6594C0.856934 15.5087 1.56884 16.1993 2.44424 16.1993H13.5553C14.4307 16.1993 15.1426 15.5087 15.1426 14.6594ZM5.61884 13.1196H4.03154V11.5797H5.61884V13.1196ZM5.61884 10.0399H4.03154V8.5H5.61884V10.0399ZM8.79344 13.1196H7.20614V11.5797H8.79344V13.1196ZM8.79344 10.0399H7.20614V8.5H8.79344V10.0399ZM11.968 13.1196H10.3807V11.5797H11.968V13.1196ZM11.968 10.0399H10.3807V8.5H11.968V10.0399ZM13.5553 6.19022H2.44424V4.65036H13.5553V6.19022Z" fill="#A3A3A3"/>
</g>
<defs>
<clipPath id="clip0_43_142">
<rect width="16" height="17" fill="white"/>
</clipPath>
</defs>
</svg>
