<svg width="128" height="128" viewBox="0 0 128 128" fill="none" xmlns="http://www.w3.org/2000/svg">
<g clip-path="url(#clip0_43_70)">
<path d="M127.997 48.2631C127.649 48.5403 127.272 48.7875 126.958 49.1015C122.24 53.8082 117.542 58.535 112.794 63.2116C112.353 63.6459 111.609 63.9298 110.981 63.9766C109.499 64.0869 107.999 64.0134 106.4 64.0134V56.0096H104.971C99.475 56.0096 93.9757 56.0029 88.4797 56.0096C78.9904 56.0263 72.0119 63.0112 71.9918 72.5048C71.9852 75.1672 71.9918 77.8262 71.9918 80.7357C71.6446 80.3549 71.4276 80.1445 71.2439 79.9106C67.4274 75.0536 62.7762 71.2154 57.2102 68.5297C56.3454 68.1121 56.2318 67.6745 56.3988 66.796C58.9297 53.3573 68.2922 43.5664 81.5447 40.6702C83.3611 40.2727 85.251 40.0689 87.1074 40.0455C93.0208 39.9653 98.9341 40.0155 104.847 40.0121C105.298 40.0121 105.749 40.0121 106.357 40.0121V32.0117C108.213 32.0117 109.916 31.9616 111.612 32.0484C112.026 32.0685 112.484 32.4627 112.814 32.7934C117.539 37.4934 122.244 42.2101 126.962 46.9169C127.275 47.2309 127.653 47.4814 128 47.762V48.2631H127.997Z" fill="#171717"/>
<path d="M64.2487 0C64.5292 0.347409 64.7796 0.721541 65.0935 1.03554C69.8014 5.75897 74.5294 10.4557 79.204 15.2091C79.6347 15.6467 79.9119 16.3984 79.9586 17.0264C80.0688 18.5095 79.992 20.0061 79.992 21.6095H71.9918C71.9918 22.164 71.9918 22.6049 71.9918 23.0459C71.9918 26.9642 71.9718 30.8826 72.0085 34.7976C72.0152 35.596 71.8248 36.0303 71.0402 36.4011C65.0935 39.2137 60.1918 43.3225 56.0548 48.8343V21.6596H48.0012C48.0012 19.7989 47.9511 18.0986 48.0379 16.4017C48.058 15.9875 48.452 15.5298 48.7825 15.1991C53.4805 10.469 58.2018 5.76231 62.9098 1.03889C63.2236 0.724881 63.4707 0.347409 63.7478 0C63.9148 0 64.0817 0 64.2487 0Z" fill="#171717"/>
<path d="M71.9919 128H56.0015C56.0015 127.556 56.0015 127.121 56.0015 126.684C56.0015 119.225 56.0182 111.765 55.9981 104.306C55.9748 96.456 50.8795 90.089 43.2599 88.3954C42.2515 88.1716 41.1997 88.0447 40.168 88.038C34.2513 88.0046 28.338 88.0213 22.4213 88.0213C22.2176 88.0213 22.0173 88.0447 21.6533 88.0647V96.0184C19.7968 96.0184 18.0973 96.0384 16.4011 95.9983C16.1106 95.9917 15.8134 95.7612 15.5463 95.5941C15.3727 95.4872 15.2458 95.3102 15.0989 95.1632C10.0871 90.1592 5.07526 85.1585 0 80.0877C0.280475 79.767 0.504187 79.4831 0.75795 79.2292C5.58612 74.3922 10.4043 69.5485 15.2692 64.7516C15.6799 64.3441 16.3944 64.0902 16.9854 64.0535C18.4746 63.9566 19.9738 64.02 21.5865 64.02V72.0238C22.1341 72.0238 22.5682 72.0238 23.0023 72.0238C28.7921 72.0238 34.5819 72.0071 40.375 72.0271C55.5841 72.0806 68.9734 83.4282 71.4977 98.4402C71.7848 100.157 71.9618 101.911 71.9718 103.651C72.0219 111.361 71.9952 119.071 71.9952 126.777C71.9952 127.145 71.9952 127.512 71.9952 127.997L71.9919 128Z" fill="#171717"/>
</g>
<defs>
<clipPath id="clip0_43_70">
<rect width="128" height="128" fill="white"/>
</clipPath>
</defs>
</svg>
