<svg width="48" height="48" viewBox="0 0 56 56" fill="none" xmlns="http://www.w3.org/2000/svg">
<path d="M23.3332 42C27.4748 41.9991 31.497 40.6127 34.7595 38.0613L45.0168 48.3187L48.3162 45.0193L38.0588 34.762C40.6115 31.4992 41.9988 27.476 41.9998 23.3333C41.9998 13.041 33.6255 4.66667 23.3332 4.66667C13.0408 4.66667 4.6665 13.041 4.6665 23.3333C4.6665 33.6257 13.0408 42 23.3332 42ZM23.3332 9.33333C31.0542 9.33333 37.3332 15.6123 37.3332 23.3333C37.3332 31.0543 31.0542 37.3333 23.3332 37.3333C15.6122 37.3333 9.33317 31.0543 9.33317 23.3333C9.33317 15.6123 15.6122 9.33333 23.3332 9.33333Z" fill="#F8F7F4"/>
</svg>
